{
  "accessors": [
    {
      "bufferView": 2,
      "componentType": 5126,
      "count": 2497,
      "max": [
        0.9872313141822815,
        0.9872313737869263,
        1.1018710136413574
      ],
      "min": [
        -0.9872308969497681,
        -0.9872313141822815,
        -0.9975765347480774
      ],
      "type": "VEC3"
    },
    {
      "bufferView": 2,
      "byteOffset": 29964,
      "componentType": 5126,
      "count": 2497,
      "max": [
        1.0,
        1.0,
        0.999949038028717
      ],
      "min": [
        -1.0,
        -1.0,
        -1.0
      ],
      "type": "VEC3"
    },
    {
      "bufferView": 1,
      "componentType": 5126,
      "count": 2497,
      "max": [
        1.0000003576278687,
        0.9375002980232239
      ],
      "min": [
        0.0,
        0.0
      ],
      "type": "VEC2"
    },
    {
      "bufferView": 0,
      "componentType": 5125,
      "count": 12864,
      "type": "SCALAR"
    },
    {
      "bufferView": 2,
      "byteOffset": 59928,
      "componentType": 5126,
      "count": 5480,
      "max": [
        0.6360291242599487,
        0.6363349556922913,
        0.7634331583976746
      ],
      "min": [
        -0.6360287666320801,
        -0.6357231736183167,
        0.5576686859130859
      ],
      "type": "VEC3"
    },
    {
      "bufferView": 2,
      "byteOffset": 125688,
      "componentType": 5126,
      "count": 5480,
      "max": [
        0.8000212907791138,
        0.8000004887580872,
        -0.48002108931541443
      ],
      "min": [
        -0.8486279249191284,
        -0.8530105352401733,
        -0.9999902248382568
      ],
      "type": "VEC3"
    },
    {
      "bufferView": 1,
      "byteOffset": 19976,
      "componentType": 5126,
      "count": 5480,
      "max": [
        0.9364084005355835,
        0.9364985227584839
      ],
      "min": [
        0.06359188258647919,
        0.06368191540241241
      ],
      "type": "VEC2"
    },
    {
      "bufferView": 1,
      "byteOffset": 63816,
      "componentType": 5126,
      "count": 5480,
      "max": [
        0.9364084005355835,
        0.9364985227584839
      ],
      "min": [
        0.06359188258647919,
        0.06368191540241241
      ],
      "type": "VEC2"
    },
    {
      "bufferView": 0,
      "byteOffset": 51456,
      "componentType": 5125,
      "count": 23808,
      "type": "SCALAR"
    }
  ],
  "asset": {
    "extras": {
      "author": "ewa_podermanska (https://sketchfab.com/ewapodermanska)",
      "license": "CC-BY-4.0 (http://creativecommons.org/licenses/by/4.0/)",
      "source": "https://sketchfab.com/3d-models/parasite-eyeball-blender-file-a8ac67648d6a4e25a90f757b90a89f01",
      "title": "Parasite eyeball - blender file"
    },
    "generator": "Sketchfab-15.5.0",
    "version": "2.0"
  },
  "bufferViews": [
    {
      "buffer": 0,
      "byteLength": 146688,
      "name": "floatBufferViews",
      "target": 34963
    },
    {
      "buffer": 0,
      "byteLength": 107656,
      "byteOffset": 146688,
      "byteStride": 8,
      "name": "floatBufferViews",
      "target": 34962
    },
    {
      "buffer": 0,
      "byteLength": 191448,
      "byteOffset": 254344,
      "byteStride": 12,
      "name": "floatBufferViews",
      "target": 34962
    }
  ],
  "buffers": [
    {
      "byteLength": 445792,
      "uri": "scene.bin"
    }
  ],
  "extensionsUsed": [
    "KHR_materials_transmission",
    "KHR_materials_specular"
  ],
  "images": [
    {
      "uri": "textures/EYE-PARASITE_baseColor.png"
    },
    {
      "uri": "textures/EYE-PARASITE_transmission.png"
    },
    {
      "uri": "textures/irys.PARASITE.001_baseColor.png"
    },
    {
      "uri": "textures/irys.PARASITE.001_emissive.png"
    }
  ],
  "materials": [
    {
      "alphaMode": "BLEND",
      "doubleSided": true,
      "emissiveFactor": [
        0.018067085718641056,
        0.0034368344501412066,
        0.0034368344501412066
      ],
      "extensions": {
        "KHR_materials_specular": {
          "specularColorFactor": [
            1.0,
            1.0,
            1.0
          ],
          "specularFactor": 0.4501849044558908
        },
        "KHR_materials_transmission": {
          "transmissionFactor": 1.0,
          "transmissionTexture": {
            "index": 1
          }
        }
      },
      "name": "EYE-PARASITE",
      "pbrMetallicRoughness": {
        "baseColorTexture": {
          "index": 0
        },
        "metallicFactor": 0.0,
        "roughnessFactor": 0.15850152676237717
      }
    },
    {
      "doubleSided": true,
      "emissiveFactor": [
        0.9773415640956182,
        0.9773415640956182,
        0.9773415640956182
      ],
      "emissiveTexture": {
        "index": 3
      },
      "extensions": {
        "KHR_materials_specular": {
          "specularColorFactor": [
            1.0,
            1.0,
            1.0
          ],
          "specularFactor": 0.0
        }
      },
      "name": "irys.PARASITE.001",
      "pbrMetallicRoughness": {
        "baseColorTexture": {
          "index": 2
        },
        "metallicFactor": 0.0
      }
    }
  ],
  "meshes": [
    {
      "name": "Object_0",
      "primitives": [
        {
          "attributes": {
            "NORMAL": 1,
            "POSITION": 0,
            "TEXCOORD_0": 2
          },
          "indices": 3,
          "material": 0,
          "mode": 4
        }
      ]
    },
    {
      "name": "Object_1",
      "primitives": [
        {
          "attributes": {
            "NORMAL": 5,
            "POSITION": 4,
            "TEXCOORD_0": 6,
            "TEXCOORD_1": 7
          },
          "indices": 8,
          "material": 1,
          "mode": 4
        }
      ]
    }
  ],
  "nodes": [
    {
      "children": [
        1
      ],
      "matrix": [
        1.0,
        0.0,
        0.0,
        0.0,
        0.0,
        2.220446049250313e-16,
        -1.0,
        0.0,
        0.0,
        1.0,
        2.220446049250313e-16,
        0.0,
        0.0,
        0.0,
        0.0,
        1.0
      ],
      "name": "Sketchfab_model"
    },
    {
      "children": [
        2
      ],
      "name": "root"
    },
    {
      "children": [
        3
      ],
      "matrix": [
        1.0,
        0.0,
        0.0,
        0.0,
        0.0,
        2.220446049250313e-16,
        1.0,
        0.0,
        0.0,
        -1.0,
        2.220446049250313e-16,
        0.0,
        0.0,
        0.0,
        0.0,
        1.0
      ],
      "name": "GLTF_SceneRootNode"
    },
    {
      "children": [
        4,
        5
      ],
      "name": "eye-illusion_2"
    },
    {
      "mesh": 0,
      "name": "Object_4"
    },
    {
      "children": [
        6
      ],
      "name": "irys.parasite_1"
    },
    {
      "mesh": 1,
      "name": "Object_6"
    }
  ],
  "samplers": [
    {
      "magFilter": 9729,
      "minFilter": 9987,
      "wrapS": 10497,
      "wrapT": 10497
    }
  ],
  "scene": 0,
  "scenes": [
    {
      "name": "Sketchfab_Scene",
      "nodes": [
        0
      ]
    }
  ],
  "textures": [
    {
      "sampler": 0,
      "source": 0
    },
    {
      "sampler": 0,
      "source": 1
    },
    {
      "sampler": 0,
      "source": 2
    },
    {
      "sampler": 0,
      "source": 3
    }
  ]
}
